<mxfile host="app.diagrams.net" modified="2023-08-16T08:59:49.143Z" agent="Mozilla/5.0 (Windows NT 10.0; Win64; x64) AppleWebKit/537.36 (KHTML, like Gecko) Chrome/115.0.0.0 Safari/537.36" version="21.6.7" etag="xhZEwVjS6uqjhlr9ynUy" type="github">
  <diagram name="Page-1" id="fGVr0S746ndwAcKPCeCV">
    <mxGraphModel>
      <root>
        <mxCell id="0" />
        <mxCell id="1" parent="0" />
      </root>
    </mxGraphModel>
  </diagram>
</mxfile>
